<?xml version="1.0" encoding="UTF-8"?>
<svg version="1.1" xmlns="http://www.w3.org/2000/svg" width="545" height="255">
<path d="M0 0 C179.85 0 359.7 0 545 0 C545 84.15 545 168.3 545 255 C365.15 255 185.3 255 0 255 C0 170.85 0 86.7 0 0 Z " fill="#FBFCFE" transform="translate(0,0)"/>
<path d="M0 0 C6.35330846 4.65973075 10.88384837 10.24819106 14.34375 17.33984375 C14.34375 18.32984375 14.34375 19.31984375 14.34375 20.33984375 C15.82875 20.21609375 15.82875 20.21609375 17.34375 20.08984375 C23.26375186 20.10182756 27.71950701 22.93708844 32.09375 26.71484375 C38.21426305 33.85544231 39.49511894 38.25770722 39.34375 47.33984375 C40.065625 47.56671875 40.7875 47.79359375 41.53125 48.02734375 C46.49444584 50.34350181 50.02686075 54.37538892 52.6171875 59.1875 C54.53192356 64.85964821 54.2982934 71.71117617 52.09375 77.27734375 C48.12089492 84.22984014 44.00126067 87.78734019 36.34375 90.33984375 C34.78256572 90.4072524 33.2187248 90.42498831 31.65625 90.40234375 C30.84800781 90.39332031 30.03976563 90.38429688 29.20703125 90.375 C28.59214844 90.36339844 27.97726563 90.35179687 27.34375 90.33984375 C27.19679688 89.49550781 27.04984375 88.65117187 26.8984375 87.78125 C26.54487974 85.76353242 26.19074952 83.74590666 25.82983398 81.72949219 C24.96622679 76.9033665 24.1285634 72.07391548 23.31951904 67.23838806 C22.81964825 64.26950405 22.3066106 61.30296678 21.79180908 58.3366394 C21.5355554 56.84335422 21.28466446 55.34913849 21.03924561 53.85403442 C20.68742811 51.71640651 20.31641036 49.58288458 19.94140625 47.44921875 C19.73008057 46.20108398 19.51875488 44.95294922 19.30102539 43.66699219 C18.06538578 39.37234884 16.15181386 36.51870138 12.390625 34.06640625 C10.09237239 33.25061429 8.02130213 32.92903953 5.59375 32.71484375 C4.79453125 32.64007813 3.9953125 32.5653125 3.171875 32.48828125 C2.56859375 32.43929687 1.9653125 32.3903125 1.34375 32.33984375 C1.34375 33.65984375 1.34375 34.97984375 1.34375 36.33984375 C2.23126953 36.25283203 2.23126953 36.25283203 3.13671875 36.1640625 C7.49886957 35.91500005 9.64267996 35.8326867 13.28125 38.46484375 C17.28904058 44.05146093 18.00896043 50.48525699 19.0703125 57.12890625 C19.22285492 58.06858246 19.37539734 59.00825867 19.53256226 59.97640991 C19.85281154 61.96122336 20.17035252 63.94647546 20.48535156 65.93212891 C20.96410863 68.93572501 21.4581418 71.93654108 21.953125 74.9375 C26.01436888 100.0312999 26.01436888 100.0312999 23.33325195 105.34106445 C21.26049728 108.02557909 19.56259064 109.26689687 16.34375 110.33984375 C14.06083085 110.45489485 11.77470993 110.50927971 9.48901367 110.53271484 C8.44942757 110.54498108 8.44942757 110.54498108 7.38883972 110.55749512 C5.09647476 110.58229645 2.80417149 110.59885127 0.51171875 110.61328125 C-0.27238562 110.61860493 -1.05648998 110.6239286 -1.86435509 110.6294136 C-6.01445919 110.65612197 -10.16453346 110.67550446 -14.31469727 110.68994141 C-17.74563245 110.70328217 -21.17597308 110.73113954 -24.60668945 110.77197266 C-28.75344491 110.82132467 -32.89966102 110.84606522 -37.04669762 110.85316849 C-38.62434465 110.85987459 -40.20197995 110.87508018 -41.779459 110.8990593 C-43.99138407 110.93076512 -46.20123641 110.93074108 -48.41333008 110.92333984 C-50.29838005 110.93547012 -50.29838005 110.93547012 -52.22151184 110.94784546 C-56.77707452 110.1414405 -58.39791589 108.57160246 -61.65625 105.33984375 C-65.5423679 97.56760795 -61.85334475 85.46153735 -60.28125 77.40234375 C-59.83437412 75.03935762 -59.38905412 72.67607671 -58.9453125 70.3125 C-58.72810547 69.16152832 -58.51089844 68.01055664 -58.28710938 66.82470703 C-57.13124157 60.43970043 -56.19172701 54.02219212 -55.25805664 47.6015625 C-54.61410455 43.46167896 -53.85075971 41.57230658 -51.09375 38.27734375 C-46.73713526 35.82179726 -43.53515836 35.85195291 -38.65625 36.33984375 C-38.65625 35.01984375 -38.65625 33.69984375 -38.65625 32.33984375 C-47.43753156 32.68299172 -47.43753156 32.68299172 -54.65625 37.33984375 C-57.89159294 44.17803117 -58.70459115 51.87423752 -59.78125 59.27734375 C-60.11432316 61.51605303 -60.45011896 63.75435948 -60.7890625 65.9921875 C-60.93230957 66.97179443 -61.07555664 67.95140137 -61.22314453 68.96069336 C-61.65625 71.33984375 -61.65625 71.33984375 -62.65625 73.33984375 C-63.02322869 75.83988608 -63.35622306 78.33180601 -63.65625 80.83984375 C-64.52111486 88.06957348 -64.52111486 88.06957348 -65.65625 90.33984375 C-72.77355083 89.80604619 -78.15292239 86.25128534 -82.90625 81.08984375 C-89.72781646 72.367185 -90.61242294 64.31192823 -89.65625 53.33984375 C-88.10035014 43.92109282 -82.19107638 36.94164533 -74.65625 31.40234375 C-68.70731021 27.50849225 -63.86605212 25.98814609 -56.65625 26.33984375 C-56.45 25.06109375 -56.24375 23.78234375 -56.03125 22.46484375 C-53.66061602 11.99454365 -47.19552949 4.48749219 -38.28515625 -1.1640625 C-26.04125602 -8.22089169 -11.98195892 -7.48872433 0 0 Z " fill="#2D89F0" transform="translate(143.65625,63.66015625)"/>
<path d="M0 0 C6.35330846 4.65973075 10.88384837 10.24819106 14.34375 17.33984375 C14.34375 18.32984375 14.34375 19.31984375 14.34375 20.33984375 C15.82875 20.21609375 15.82875 20.21609375 17.34375 20.08984375 C23.26375186 20.10182756 27.71950701 22.93708844 32.09375 26.71484375 C38.21426305 33.85544231 39.49511894 38.25770722 39.34375 47.33984375 C40.065625 47.56671875 40.7875 47.79359375 41.53125 48.02734375 C46.49444584 50.34350181 50.02686075 54.37538892 52.6171875 59.1875 C54.53192356 64.85964821 54.2982934 71.71117617 52.09375 77.27734375 C48.12089492 84.22984014 44.00126067 87.78734019 36.34375 90.33984375 C34.78256572 90.4072524 33.2187248 90.42498831 31.65625 90.40234375 C30.84800781 90.39332031 30.03976563 90.38429688 29.20703125 90.375 C28.59214844 90.36339844 27.97726563 90.35179687 27.34375 90.33984375 C27.19679688 89.49550781 27.04984375 88.65117187 26.8984375 87.78125 C26.54487974 85.76353242 26.19074952 83.74590666 25.82983398 81.72949219 C24.96622679 76.9033665 24.1285634 72.07391548 23.31951904 67.23838806 C22.81964825 64.26950405 22.3066106 61.30296678 21.79180908 58.3366394 C21.5355554 56.84335422 21.28466446 55.34913849 21.03924561 53.85403442 C20.68742811 51.71640651 20.31641036 49.58288458 19.94140625 47.44921875 C19.73008057 46.20108398 19.51875488 44.95294922 19.30102539 43.66699219 C18.06538578 39.37234884 16.15181386 36.51870138 12.390625 34.06640625 C10.09237239 33.25061429 8.02130213 32.92903953 5.59375 32.71484375 C4.79453125 32.64007813 3.9953125 32.5653125 3.171875 32.48828125 C2.56859375 32.43929687 1.9653125 32.3903125 1.34375 32.33984375 C1.24578125 31.75976562 1.1478125 31.1796875 1.046875 30.58203125 C-0.24393776 23.83864734 -2.059315 19.30079467 -7.71875 15.02734375 C-13.24969929 11.8499899 -18.40086164 11.59637546 -24.65625 12.33984375 C-29.72635172 14.21175217 -33.51292672 17.32408914 -35.98046875 22.2265625 C-37.34015996 26.47854483 -37.49581316 30.9037651 -37.65625 35.33984375 C-37.98625 34.34984375 -38.31625 33.35984375 -38.65625 32.33984375 C-47.43753156 32.68299172 -47.43753156 32.68299172 -54.65625 37.33984375 C-57.89159294 44.17803117 -58.70459115 51.87423752 -59.78125 59.27734375 C-60.11432316 61.51605303 -60.45011896 63.75435948 -60.7890625 65.9921875 C-60.93230957 66.97179443 -61.07555664 67.95140137 -61.22314453 68.96069336 C-61.65625 71.33984375 -61.65625 71.33984375 -62.65625 73.33984375 C-63.02322869 75.83988608 -63.35622306 78.33180601 -63.65625 80.83984375 C-64.52111486 88.06957348 -64.52111486 88.06957348 -65.65625 90.33984375 C-72.77355083 89.80604619 -78.15292239 86.25128534 -82.90625 81.08984375 C-89.72781646 72.367185 -90.61242294 64.31192823 -89.65625 53.33984375 C-88.10035014 43.92109282 -82.19107638 36.94164533 -74.65625 31.40234375 C-68.70731021 27.50849225 -63.86605212 25.98814609 -56.65625 26.33984375 C-56.45 25.06109375 -56.24375 23.78234375 -56.03125 22.46484375 C-53.66061602 11.99454365 -47.19552949 4.48749219 -38.28515625 -1.1640625 C-26.04125602 -8.22089169 -11.98195892 -7.48872433 0 0 Z " fill="#52A9F9" transform="translate(143.65625,63.66015625)"/>
<path d="M0 0 C4.01982566 1.66176199 7.20635608 4.19606985 10.62109375 6.859375 C11.6565332 7.64828125 11.6565332 7.64828125 12.71289062 8.453125 C14.07954202 9.49981156 15.43247013 10.56467971 16.77050781 11.64770508 C18.86012276 13.31737816 18.86012276 13.31737816 22.1640625 15.04296875 C26.52648582 20.35227465 25.29593716 26.81441636 25.05859375 33.421875 C24.87296875 40.6921875 24.87296875 40.6921875 24.68359375 48.109375 C8.18359375 48.109375 -8.31640625 48.109375 -25.31640625 48.109375 C-27.43280584 21.53680232 -27.43280584 21.53680232 -23.63037109 15.37890625 C-19.49936577 11.07025359 -14.65434231 8.04180202 -9.39697266 5.27246094 C-7.08372297 4.07148929 -7.08372297 4.07148929 -4.546875 1.7109375 C-2.31640625 0.109375 -2.31640625 0.109375 0 0 Z " fill="#F9FBFE" transform="translate(125.31640625,119.890625)"/>
<path d="M0 0 C4.02443253 2.24439506 6.20282311 4.71814622 8.25 8.8125 C8.79035594 13.7377115 8.79435469 17.68191718 6.625 22.1875 C3.27561758 25.88944899 0.73604424 28.44941157 -4.37109375 29.1953125 C-10.32344491 29.43760631 -14.16318667 28.940632 -18.75 24.8125 C-22.4986075 20.54684319 -23.1130957 16.61669513 -23.0234375 11.09375 C-22.51363989 6.84058139 -20.47446474 4.21390046 -17.20703125 1.55859375 C-11.44357913 -2.22655673 -6.41853498 -2.03253608 0 0 Z " fill="#0B3775" transform="translate(269.75,125.1875)"/>
<path d="M0 0 C5.37570899 3.11747058 8.70047738 7.45146933 10.625 13.375 C10.8878702 15.86820186 11.06979992 18.37074304 11.1875 20.875 C11.42054372 26.07918897 11.42054372 26.07918897 12.2734375 31.19921875 C12.38945312 31.91722656 12.50546875 32.63523438 12.625 33.375 C10.6875 35.6875 10.6875 35.6875 8.625 37.375 C3.75 35.5 3.75 35.5 2.625 34.375 C2.77104793 32.20514501 2.9678989 30.03864878 3.1875 27.875 C3.72770528 20.89497918 4.12897201 14.60593163 -0.3125 8.875 C-4.328201 5.95449018 -8.57828145 5.87749299 -13.375 6.375 C-17.0288392 7.75533925 -18.13265074 8.98222706 -20.1875 12.3125 C-22.36262935 18.07597833 -22.15143162 25.12724333 -20.734375 31.0546875 C-20.375 33.375 -20.375 33.375 -22.375 36.375 C-26 36.5625 -26 36.5625 -29.375 36.375 C-31.12537122 26.74157007 -30.9958126 14.51600951 -25.6875 6 C-19.07260804 -2.09370194 -9.77861936 -4.39945446 0 0 Z " fill="#043679" transform="translate(134.375,76.625)"/>
<path d="M0 0 C3.85544798 1.99657127 5.59805092 3.39707638 8 7 C8.22705078 8.90112305 8.22705078 8.90112305 8.1953125 11.01171875 C8.18886719 11.76904297 8.18242187 12.52636719 8.17578125 13.30664062 C8.15902344 14.09232422 8.14226562 14.87800781 8.125 15.6875 C8.11597656 16.48478516 8.10695313 17.28207031 8.09765625 18.10351562 C8.07411585 20.069139 8.03824547 22.03460775 8 24 C8.66 24 9.32 24 10 24 C10.042721 25.66611905 10.04063832 27.33382885 10 29 C9 30 9 30 6.625 30.25 C4 30 4 30 2.1875 28.5 C1.795625 28.005 1.40375 27.51 1 27 C0.360625 27.495 -0.27875 27.99 -0.9375 28.5 C-5.05369213 30.51609411 -8.495833 30.84707661 -13 30 C-16.06656654 27.9973443 -17.60498001 26.64863713 -18.47265625 23.02734375 C-18.625 20.9375 -18.625 20.9375 -18 17 C-15.00277568 13.92390136 -12.50189254 12.05200459 -8.1796875 11.90234375 C-7.08914063 11.91394531 -5.99859375 11.92554688 -4.875 11.9375 C-3.77929688 11.94652344 -2.68359375 11.95554688 -1.5546875 11.96484375 C-0.71164062 11.97644531 0.13140625 11.98804688 1 12 C-0.3089572 8.87802522 -0.3089572 8.87802522 -3 7 C-7.05142119 6.74139865 -8.54337669 6.69558446 -12 9 C-14.6875 8.625 -14.6875 8.625 -17 8 C-16.875 5.6875 -16.875 5.6875 -16 3 C-11.16228756 -0.59727335 -5.80576735 -0.86709512 0 0 Z " fill="#17407B" transform="translate(331,124)"/>
<path d="M0 0 C3 0.125 3 0.125 4 1.125 C4.15740605 2.83063778 4.25093392 4.54227244 4.31640625 6.25390625 C4.37924805 7.80561523 4.37924805 7.80561523 4.44335938 9.38867188 C4.48267578 10.47728516 4.52199219 11.56589844 4.5625 12.6875 C4.60568359 13.77998047 4.64886719 14.87246094 4.69335938 15.99804688 C4.79982068 18.70689564 4.90183516 21.41583992 5 24.125 C6.32 23.465 7.64 22.805 9 22.125 C9 21.465 9 20.805 9 20.125 C13.89795918 15.22704082 13.89795918 15.22704082 18.375 14.8125 C19.24125 14.915625 20.1075 15.01875 21 15.125 C21 19.125 21 19.125 19.25 21.265625 C18.13625 22.30976563 18.13625 22.30976563 17 23.375 C16.2575 24.08140625 15.515 24.7878125 14.75 25.515625 C13.88375 26.31226563 13.88375 26.31226563 13 27.125 C14.91193 31.54256458 18.04565864 34.54862201 21.3203125 38.00390625 C23 40.125 23 40.125 23 43.125 C20.3359375 43.92578125 20.3359375 43.92578125 17 44.125 C14.2265625 42.10546875 14.2265625 42.10546875 11.625 39.3125 C10.75101562 38.39855469 9.87703125 37.48460937 8.9765625 36.54296875 C7 34.125 7 34.125 7 32.125 C6.01 32.62 6.01 32.62 5 33.125 C4.60861322 35.18602235 4.60861322 35.18602235 4.5 37.5625 C4.2212693 41.9037307 4.2212693 41.9037307 2 44.125 C-2.55555556 43.56944444 -2.55555556 43.56944444 -4 42.125 C-4.101137 39.10691937 -4.13968909 36.11219487 -4.1328125 33.09375 C-4.13376923 32.18749878 -4.13472595 31.28124756 -4.13571167 30.34753418 C-4.13639353 28.42748953 -4.13453882 26.50744259 -4.13037109 24.58740234 C-4.12502292 21.63764296 -4.13031588 18.68803586 -4.13671875 15.73828125 C-4.13605797 13.87760383 -4.13477681 12.0169265 -4.1328125 10.15625 C-4.13483673 9.26772339 -4.13686096 8.37919678 -4.13894653 7.46374512 C-4.11082951 0.17128456 -4.11082951 0.17128456 0 0 Z " fill="#103A76" transform="translate(287,109.875)"/>
<path d="M0 0 C2.5 0.125 2.5 0.125 3.5 1.125 C3.73678716 3.81735776 3.92198025 6.48998156 4.0625 9.1875 C4.10568359 9.94611328 4.14886719 10.70472656 4.19335938 11.48632812 C4.29973633 13.36565438 4.40039934 15.24530244 4.5 17.125 C5.38365234 16.39410156 5.38365234 16.39410156 6.28515625 15.6484375 C9.47515969 13.45425524 11.7065588 13.7256904 15.5 14.125 C19.0386994 15.77639305 20.31070153 16.84105229 22.5 20.125 C22.72705078 22.5769043 22.72705078 22.5769043 22.6953125 25.44921875 C22.68886719 26.47724609 22.68242187 27.50527344 22.67578125 28.56445312 C22.65902344 29.63630859 22.64226562 30.70816406 22.625 31.8125 C22.61597656 32.89595703 22.60695313 33.97941406 22.59765625 35.09570312 C22.5740734 37.7723571 22.54116126 40.44856797 22.5 43.125 C20.50045254 43.16754356 18.49958364 43.16580783 16.5 43.125 C14.95429669 41.57929669 15.30175898 40.0556528 15.21875 37.90625 C15.18136719 37.05675781 15.14398438 36.20726562 15.10546875 35.33203125 C15.03515625 33.52734375 14.96484375 31.72265625 14.89453125 29.91796875 C14.85714844 29.06847656 14.81976563 28.21898437 14.78125 27.34375 C14.75095703 26.55935547 14.72066406 25.77496094 14.68945312 24.96679688 C14.69408532 23.10873804 14.69408532 23.10873804 13.5 22.125 C10.04178598 21.87496036 10.04178598 21.87496036 6.5 22.125 C4.14695112 24.47804888 4.23793483 24.99334143 4.15625 28.1875 C4.12660156 28.98414063 4.09695313 29.78078125 4.06640625 30.6015625 C4.04449219 31.43429688 4.02257812 32.26703125 4 33.125 C3.95668191 34.77108735 3.90499096 36.41698197 3.84375 38.0625 C3.82505859 38.79339844 3.80636719 39.52429688 3.78710938 40.27734375 C3.5 42.125 3.5 42.125 1.5 44.125 C-2.03571429 43.58928571 -2.03571429 43.58928571 -3.5 42.125 C-3.601137 39.10691937 -3.63968909 36.11219487 -3.6328125 33.09375 C-3.63376923 32.18749878 -3.63472595 31.28124756 -3.63571167 30.34753418 C-3.63639353 28.42748953 -3.63453882 26.50744259 -3.63037109 24.58740234 C-3.62502292 21.63764296 -3.63031588 18.68803586 -3.63671875 15.73828125 C-3.63605797 13.87760383 -3.63477681 12.0169265 -3.6328125 10.15625 C-3.63483673 9.26772339 -3.63686096 8.37919678 -3.63894653 7.46374512 C-3.61086521 0.18054326 -3.61086521 0.18054326 0 0 Z " fill="#176EE3" transform="translate(399.5,109.875)"/>
<path d="M0 0 C0.02505615 0.81267334 0.0501123 1.62534668 0.07592773 2.46264648 C0.19149118 6.12110752 0.31439584 9.77928528 0.4375 13.4375 C0.47681641 14.71689453 0.51613281 15.99628906 0.55664062 17.31445312 C0.61948242 19.13686523 0.61948242 19.13686523 0.68359375 20.99609375 C0.72025146 22.12200928 0.75690918 23.2479248 0.79467773 24.40795898 C0.71218045 26.92853441 0.71218045 26.92853441 2 28 C3.69166287 28.10925135 5.38786366 28.14907317 7.08300781 28.16113281 C8.16793518 28.17074036 9.25286255 28.1803479 10.3706665 28.19024658 C11.55287781 28.19449646 12.73508911 28.19874634 13.953125 28.203125 C15.76438873 28.21167511 15.76438873 28.21167511 17.61224365 28.22039795 C20.17459227 28.22986684 22.73695318 28.23638939 25.29931641 28.24023438 C29.21929257 28.24992409 33.13874116 28.28092409 37.05859375 28.3125 C39.54426771 28.31903123 42.02994543 28.32428123 44.515625 28.328125 C45.68973938 28.3404718 46.86385376 28.3528186 48.07354736 28.36553955 C49.71985138 28.3610379 49.71985138 28.3610379 51.39941406 28.35644531 C52.84383881 28.36191376 52.84383881 28.36191376 54.31744385 28.36749268 C57.52752027 27.92773317 59.39132385 26.89400721 62 25 C63.64562546 22.54807689 63.64562546 22.54807689 64.8125 19.8125 C65.23144531 18.91144531 65.65039062 18.01039063 66.08203125 17.08203125 C66.38496094 16.39496094 66.68789062 15.70789063 67 15 C67.66 15 68.32 15 69 15 C69.86073185 26.82071747 69.86073185 26.82071747 66.6875 30.6875 C62.56407194 34.235566 59.52618334 34.12599214 54.24951172 34.12939453 C53.56792999 34.13114685 52.88634827 34.13289917 52.18411255 34.13470459 C49.9326116 34.13910391 47.68118924 34.13619253 45.4296875 34.1328125 C43.86695338 34.13348593 42.30421936 34.13445629 40.7414856 34.13571167 C37.46810915 34.13718591 34.19476 34.13504229 30.92138672 34.13037109 C26.71666742 34.12466453 22.51201182 34.12796039 18.30729485 34.13394356 C15.08179235 34.13754852 11.85630509 34.13641105 8.63080215 34.13381577 C7.07978432 34.1331468 5.52876511 34.13397385 3.97774887 34.13629532 C1.81569475 34.1388218 -0.34625451 34.13498179 -2.50830078 34.12939453 C-4.35671066 34.12820114 -4.35671066 34.12820114 -6.24246216 34.12698364 C-9 34 -9 34 -10 33 C-10.04063832 31.33382885 -10.042721 29.66611905 -10 28 C-8.02 27.01 -6.04 26.02 -4 25 C-3.67 17.08 -3.34 9.16 -3 1 C-1 0 -1 0 0 0 Z " fill="#084EB2" transform="translate(99,140)"/>
<path d="M0 0 C4.55555556 0.55555556 4.55555556 0.55555556 6 2 C6.08847743 4.52094076 6.11527301 7.01430893 6.09765625 9.53515625 C6.0962413 10.28840683 6.09482635 11.04165741 6.09336853 11.81773376 C6.08775376 14.2326956 6.07519883 16.64756601 6.0625 19.0625 C6.0574869 20.69596221 6.05292366 22.32942586 6.04882812 23.96289062 C6.03777954 27.97529585 6.02050506 31.98763241 6 36 C6.56509277 35.98952637 7.13018555 35.97905273 7.71240234 35.96826172 C10.26655653 35.92675212 12.82063982 35.9006904 15.375 35.875 C16.26445312 35.85824219 17.15390625 35.84148437 18.0703125 35.82421875 C19.34648437 35.81455078 19.34648437 35.81455078 20.6484375 35.8046875 C21.82672119 35.78897705 21.82672119 35.78897705 23.02880859 35.77294922 C25 36 25 36 27 38 C26.625 40.625 26.625 40.625 26 43 C21.52084672 43.02886338 17.04171709 43.04675187 12.5625 43.0625 C11.28310547 43.07087891 10.00371094 43.07925781 8.68554688 43.08789062 C7.47060547 43.09111328 6.25566406 43.09433594 5.00390625 43.09765625 C3.87799072 43.10289307 2.7520752 43.10812988 1.59204102 43.11352539 C-1 43 -1 43 -2 42 C-2.11353016 39.06634254 -2.16418708 36.15711538 -2.16796875 33.22265625 C-2.17129715 32.34097275 -2.17462555 31.45928925 -2.17805481 30.55088806 C-2.18312783 28.68212406 -2.18546302 26.81335096 -2.18530273 24.94458008 C-2.18748808 22.07813656 -2.20563655 19.2120784 -2.22460938 16.34570312 C-2.22754339 14.53385549 -2.22952813 12.72200602 -2.23046875 10.91015625 C-2.23765427 10.0486647 -2.24483978 9.18717316 -2.25224304 8.29957581 C-2.2288216 2.2288216 -2.2288216 2.2288216 0 0 Z " fill="#123C77" transform="translate(218,110)"/>
<path d="M0 0 C0.68429077 -0.00095673 1.36858154 -0.00191345 2.0736084 -0.00289917 C3.52286877 -0.0035808 4.97213218 -0.00172773 6.42138672 0.00244141 C8.64687928 0.00778998 10.87217001 0.0024959 13.09765625 -0.00390625 C14.50260461 -0.00324547 15.90755285 -0.0019643 17.3125 0 C18.59962891 0.00112793 19.88675781 0.00225586 21.21289062 0.00341797 C24.15625 0.1328125 24.15625 0.1328125 25.15625 1.1328125 C25.28125 3.6328125 25.28125 3.6328125 25.15625 6.1328125 C24.15625 7.1328125 24.15625 7.1328125 21.43359375 7.23046875 C19.78037109 7.21306641 19.78037109 7.21306641 18.09375 7.1953125 C16.98902344 7.18628906 15.88429688 7.17726563 14.74609375 7.16796875 C13.89144531 7.15636719 13.03679687 7.14476563 12.15625 7.1328125 C12.16672363 8.1522998 12.17719727 9.17178711 12.18798828 10.22216797 C12.22413727 13.99784852 12.24713177 17.77351371 12.26611328 21.54931641 C12.27618254 23.18475922 12.28983881 24.82018399 12.30712891 26.45556641 C12.33133705 28.8037562 12.34272357 31.15170838 12.3515625 33.5 C12.36188507 34.23338593 12.37220764 34.96677185 12.38284302 35.72238159 C12.38324368 37.52743947 12.27837755 39.3318908 12.15625 41.1328125 C11.49625 41.7928125 10.83625 42.4528125 10.15625 43.1328125 C6.62053571 42.59709821 6.62053571 42.59709821 5.15625 41.1328125 C5.06777257 38.61187174 5.04097699 36.11850357 5.05859375 33.59765625 C5.0600087 32.84440567 5.06142365 32.09115509 5.06288147 31.31507874 C5.06849624 28.9001169 5.08105117 26.48524649 5.09375 24.0703125 C5.0987631 22.43685029 5.10332634 20.80338664 5.10742188 19.16992188 C5.11847046 15.15751665 5.13574494 11.14518009 5.15625 7.1328125 C4.30160156 7.14441406 3.44695312 7.15601562 2.56640625 7.16796875 C1.46167969 7.17699219 0.35695313 7.18601562 -0.78125 7.1953125 C-1.88339844 7.20691406 -2.98554688 7.21851562 -4.12109375 7.23046875 C-6.84375 7.1328125 -6.84375 7.1328125 -7.84375 6.1328125 C-7.96875 3.6328125 -7.96875 3.6328125 -7.84375 1.1328125 C-5.93525052 -0.77568698 -2.52896226 0.00221617 0 0 Z " fill="#166EE4" transform="translate(366.84375,110.8671875)"/>
<path d="M0 0 C1.21236328 0.02707031 1.21236328 0.02707031 2.44921875 0.0546875 C3.37154297 0.08949219 3.37154297 0.08949219 4.3125 0.125 C4.9725 1.445 5.6325 2.765 6.3125 4.125 C5.3225 5.61 5.3225 5.61 4.3125 7.125 C1.1875 7.3125 1.1875 7.3125 -1.6875 7.125 C-2.3475 9.435 -3.0075 11.745 -3.6875 14.125 C-1.7075 14.125 0.2725 14.125 2.3125 14.125 C2.69468767 15.78114657 3.02645102 17.44957024 3.3125 19.125 C2.3125 20.125 2.3125 20.125 -0.75 20.1875 C-1.719375 20.166875 -2.68875 20.14625 -3.6875 20.125 C-3.68226318 20.75591553 -3.67702637 21.38683105 -3.67163086 22.03686523 C-3.65092174 24.87873347 -3.63785934 27.72058588 -3.625 30.5625 C-3.61662109 31.55572266 -3.60824219 32.54894531 -3.59960938 33.57226562 C-3.59638672 34.51650391 -3.59316406 35.46074219 -3.58984375 36.43359375 C-3.58460693 37.30814209 -3.57937012 38.18269043 -3.57397461 39.08374023 C-3.6875 41.125 -3.6875 41.125 -4.6875 42.125 C-7.6875 42.25 -7.6875 42.25 -10.6875 42.125 C-11.6875 41.125 -11.6875 41.125 -11.80102539 39.08374023 C-11.79578857 38.20919189 -11.79055176 37.33464355 -11.78515625 36.43359375 C-11.78032227 35.01723633 -11.78032227 35.01723633 -11.77539062 33.57226562 C-11.76701172 32.57904297 -11.75863281 31.58582031 -11.75 30.5625 C-11.74548828 29.56541016 -11.74097656 28.56832031 -11.73632812 27.54101562 C-11.72450007 25.06895151 -11.70801849 22.59700482 -11.6875 20.125 C-13.0075 19.795 -14.3275 19.465 -15.6875 19.125 C-15.3575 17.475 -15.0275 15.825 -14.6875 14.125 C-13.6975 14.125 -12.7075 14.125 -11.6875 14.125 C-11.77 13.25875 -11.8525 12.3925 -11.9375 11.5 C-11.62668637 7.30401595 -10.28125096 5.38571549 -7.6875 2.125 C-4.48369983 -0.01086678 -3.66810033 -0.10632175 0 0 Z " fill="#1F72E4" transform="translate(478.6875,110.875)"/>
<path d="M0 0 C4.11639609 1.77753468 6.76553623 4.11037788 9 8 C9 11.3 9 14.6 9 18 C0.42 18 -8.16 18 -17 18 C-17 11.67904644 -16.97047942 9.24784697 -14 4 C-9.33721547 -0.22903713 -6.0241897 -0.66935441 0 0 Z " fill="#5DB2F9" transform="translate(129,82)"/>
<path d="M0 0 C3 0.125 3 0.125 4 1.125 C4.16003488 3.78926685 4.25942889 6.43060428 4.31640625 9.09765625 C4.33718735 9.89529892 4.35796844 10.69294159 4.37937927 11.51475525 C4.44496158 14.07224611 4.50379967 16.6298428 4.5625 19.1875 C4.60567699 20.91732882 4.64929101 22.64714679 4.69335938 24.37695312 C4.80065172 28.6261926 4.90189426 32.8755389 5 37.125 C6.65 37.785 8.3 38.445 10 39.125 C9.125 43 9.125 43 8 44.125 C1.74719101 44.71488764 1.74719101 44.71488764 -1.375 42.25 C-4.45357684 38.22416875 -4.14526341 34.76643728 -4.1328125 29.87109375 C-4.13376923 29.05504166 -4.13472595 28.23898956 -4.13571167 27.39820862 C-4.13639256 25.67245405 -4.13454461 23.94669692 -4.13037109 22.22094727 C-4.12501468 19.56976617 -4.13032267 16.91875397 -4.13671875 14.26757812 C-4.13605809 12.59374962 -4.13477717 10.91992123 -4.1328125 9.24609375 C-4.13483673 8.44819931 -4.13686096 7.65030487 -4.13894653 6.82823181 C-4.11036744 0.17126531 -4.11036744 0.17126531 0 0 Z " fill="#18407A" transform="translate(349,109.875)"/>
<path d="M0 0 C2.5 0.125 2.5 0.125 3.5 1.125 C3.54092937 3.45797433 3.54241723 5.79205225 3.5 8.125 C5.48 8.125 7.46 8.125 9.5 8.125 C9.88218767 9.78114657 10.21395102 11.44957024 10.5 13.125 C10.17 13.455 9.84 13.785 9.5 14.125 C7.52 14.125 5.54 14.125 3.5 14.125 C3.83 19.075 4.16 24.025 4.5 29.125 C6.48 29.785 8.46 30.445 10.5 31.125 C10.5 32.775 10.5 34.425 10.5 36.125 C7.44306678 37.65346661 4.87015453 37.35742445 1.5 37.125 C-1.6850357 35.36484869 -2.33296972 34.62609084 -3.5 31.125 C-3.57973476 29.78974283 -3.60771338 28.45087917 -3.59765625 27.11328125 C-3.59443359 26.35595703 -3.59121094 25.59863281 -3.58789062 24.81835938 C-3.57951172 24.03267578 -3.57113281 23.24699219 -3.5625 22.4375 C-3.55798828 21.64021484 -3.55347656 20.84292969 -3.54882812 20.02148438 C-3.5370585 18.05595743 -3.51912348 16.09046915 -3.5 14.125 C-5.15 13.795 -6.8 13.465 -8.5 13.125 C-8.17 11.475 -7.84 9.825 -7.5 8.125 C-6.18 8.125 -4.86 8.125 -3.5 8.125 C-3.520625 6.990625 -3.54125 5.85625 -3.5625 4.6875 C-3.4833187 0.17416594 -3.4833187 0.17416594 0 0 Z " fill="#186FE3" transform="translate(492.5,116.875)"/>
<path d="M0 0 C0 1.98 0 3.96 0 6 C-1.27875 6.12375 -2.5575 6.2475 -3.875 6.375 C-7.34790936 6.69042399 -7.34790936 6.69042399 -10 9 C-10.35207936 10.91678271 -10.35207936 10.91678271 -10.37890625 13.09765625 C-10.41306641 13.89880859 -10.44722656 14.69996094 -10.48242188 15.52539062 C-10.50884766 16.36263672 -10.53527344 17.19988281 -10.5625 18.0625 C-10.88006757 26.88006757 -10.88006757 26.88006757 -12 28 C-15 28.125 -15 28.125 -18 28 C-19.77449594 26.22550406 -19.13030072 23.64982739 -19.1328125 21.25 C-19.13410156 20.0846875 -19.13539063 18.919375 -19.13671875 17.71875 C-19.13285156 16.4915625 -19.12898438 15.264375 -19.125 14 C-19.12886719 12.7728125 -19.13273437 11.545625 -19.13671875 10.28125 C-19.13542969 9.1159375 -19.13414062 7.950625 -19.1328125 6.75 C-19.13168457 5.67234375 -19.13055664 4.5946875 -19.12939453 3.484375 C-19 1 -19 1 -18 0 C-16.00041636 -0.04080783 -13.99954746 -0.04254356 -12 0 C-12 0.99 -12 1.98 -12 3 C-11.34 3 -10.68 3 -10 3 C-10 2.34 -10 1.68 -10 1 C-6.1496895 -1.56687367 -4.41430237 -0.83288724 0 0 Z " fill="#1F73E3" transform="translate(447,125)"/>
<path d="M0 0 C21.45 0.33 42.9 0.66 65 1 C65 2.32 65 3.64 65 5 C43.88 5 22.76 5 1 5 C0.67 3.35 0.34 1.7 0 0 Z " fill="#03409F" transform="translate(89,169)"/>
<path d="M0 0 C2.89357127 2.59679473 3.86089908 4.16539447 4.5 8 C3.86089908 11.83460553 2.89357127 13.40320527 0 16 C-3.4375 17.0625 -3.4375 17.0625 -7 17 C-9.80189446 15.23358828 -11.51524911 13.96950178 -13 11 C-13.43023798 7.12785818 -13.31669086 5.47503629 -11.125 2.1875 C-7.39843934 -1.64866539 -5.12463952 -1.23698195 0 0 Z " fill="#EFF1F7" transform="translate(267,131)"/>
<path d="M0 0 C4.95 0 9.9 0 15 0 C15 4.95 15 9.9 15 15 C10.05 15 5.1 15 0 15 C0 10.05 0 5.1 0 0 Z " fill="#C6DCF8" transform="translate(118,139)"/>
<path d="M0 0 C2.5 0.125 2.5 0.125 3.5 1.125 C3.59971786 3.03958282 3.63080589 4.95782317 3.6328125 6.875 C3.63410156 8.0403125 3.63539063 9.205625 3.63671875 10.40625 C3.63285156 11.6334375 3.62898438 12.860625 3.625 14.125 C3.62886719 15.3521875 3.63273437 16.579375 3.63671875 17.84375 C3.63542969 19.0090625 3.63414062 20.174375 3.6328125 21.375 C3.63168457 22.45265625 3.63055664 23.5303125 3.62939453 24.640625 C3.5 27.125 3.5 27.125 2.5 28.125 C0 28.25 0 28.25 -2.5 28.125 C-4.27449594 26.35050406 -3.63030072 23.77482739 -3.6328125 21.375 C-3.63410156 20.2096875 -3.63539063 19.044375 -3.63671875 17.84375 C-3.63285156 16.6165625 -3.62898438 15.389375 -3.625 14.125 C-3.62886719 12.8978125 -3.63273437 11.670625 -3.63671875 10.40625 C-3.63542969 9.2409375 -3.63414062 8.075625 -3.6328125 6.875 C-3.63168457 5.79734375 -3.63055664 4.7196875 -3.62939453 3.609375 C-3.45459126 0.25315211 -3.35813164 0.16790658 0 0 Z " fill="#1A70E3" transform="translate(455.5,124.875)"/>
<path d="M0 0 C-0.33 0.99 -0.66 1.98 -1 3 C-4.5625 4.1875 -4.5625 4.1875 -8 5 C-8.38218767 6.65614657 -8.71395102 8.32457024 -9 10 C-7.50256881 11.49743119 -6.01175761 11.33202693 -3.9375 11.5625 C-2.638125 11.706875 -1.33875 11.85125 0 12 C0.33 12.99 0.66 13.98 1 15 C-3.31609474 17.43697866 -7.12932313 17.82333506 -12 17 C-15.06656654 14.9973443 -16.60498001 13.64863713 -17.47265625 10.02734375 C-17.72770797 6.5285574 -17.25465685 4.3637955 -15.25 1.5 C-10.27152376 -0.79775826 -5.39530594 -0.30977833 0 0 Z " fill="#0F3975" transform="translate(330,137)"/>
<path d="M0 0 C0.5159523 0.32466248 1.0319046 0.64932495 1.56349182 0.98382568 C4.80479634 2.33564975 7.47280049 2.25433751 10.98413086 2.25878906 C11.67894058 2.2622937 12.37375031 2.26579834 13.08961487 2.26940918 C15.38146013 2.27819589 17.67299546 2.27238764 19.96484375 2.265625 C21.56140705 2.26697269 23.15796996 2.26891408 24.75453186 2.27142334 C28.0993338 2.27437058 31.44402885 2.27009041 34.78881836 2.26074219 C39.07052863 2.24935709 43.3519879 2.2559036 47.63368893 2.26788712 C50.93056621 2.27512442 54.22738429 2.27280904 57.52426338 2.26763153 C59.10267733 2.26629973 60.6810967 2.26792629 62.25950432 2.27259064 C64.46863857 2.27768564 66.67737023 2.26990381 68.88647461 2.25878906 C70.142379 2.25719788 71.39828339 2.25560669 72.69224548 2.25396729 C75.90695155 2.0071442 78.06493078 1.2402077 81 0 C81.99 0.495 81.99 0.495 83 1 C84.70363822 1.22622081 86.41328701 1.40888473 88.125 1.5625 C89.03507812 1.64628906 89.94515625 1.73007813 90.8828125 1.81640625 C91.58148438 1.87699219 92.28015625 1.93757812 93 2 C92.67 2.66 92.34 3.32 92 4 C58.01 4 24.02 4 -11 4 C-11.33 3.34 -11.66 2.68 -12 2 C-8.04 2 -4.08 2 0 2 C0 1.34 0 0.68 0 0 Z " fill="#D1E0F3" transform="translate(84,171)"/>
<path d="M0 0 C0.02505615 0.80743652 0.0501123 1.61487305 0.07592773 2.44677734 C0.19165487 6.08968917 0.31448635 9.73232726 0.4375 13.375 C0.47681641 14.64601562 0.51613281 15.91703125 0.55664062 17.2265625 C0.59853516 18.43828125 0.64042969 19.65 0.68359375 20.8984375 C0.72025146 22.01911621 0.75690918 23.13979492 0.79467773 24.29443359 C0.82596013 26.96712771 0.82596013 26.96712771 2 29 C-1.96 29 -5.92 29 -10 29 C-6 26 -6 26 -4 25 C-3.67 17.08 -3.34 9.16 -3 1 C-1 0 -1 0 0 0 Z " fill="#0D68DF" transform="translate(99,140)"/>
<path d="M0 0 C8.58 0 17.16 0 26 0 C26 1.32 26 2.64 26 4 C17.42 4 8.84 4 0 4 C0 2.68 0 1.36 0 0 Z " fill="#EEF6FD" transform="translate(112,96)"/>
<path d="M0 0 C0.33 0 0.66 0 1 0 C1 11.55 1 23.1 1 35 C2.98 34.505 2.98 34.505 5 34 C5.66 34.33 6.32 34.66 7 35 C7.33 34.34 7.66 33.68 8 33 C8.1953125 39.0546875 8.1953125 39.0546875 8 41 C7.34 41.66 6.68 42.32 6 43 C1.44444444 42.44444444 1.44444444 42.44444444 0 41 C-0.08871273 37.97022196 -0.1151935 34.96332978 -0.09765625 31.93359375 C-0.0962413 31.02497086 -0.09482635 30.11634796 -0.09336853 29.18019104 C-0.08775193 26.26592779 -0.07519665 23.35174019 -0.0625 20.4375 C-0.05748714 18.46679798 -0.05292386 16.49609476 -0.04882812 14.52539062 C-0.03777711 9.68356441 -0.02050138 4.84179505 0 0 Z " fill="#34558A" transform="translate(283,111)"/>
<path d="M0 0 C0.90492188 0.02320313 1.80984375 0.04640625 2.7421875 0.0703125 C4.10730469 0.09738281 4.10730469 0.09738281 5.5 0.125 C6.19867188 0.14820313 6.89734375 0.17140625 7.6171875 0.1953125 C6.8671875 4.9453125 6.8671875 4.9453125 4.6171875 7.1953125 C1.92879365 7.46523156 -0.67423186 7.28268607 -3.3828125 7.1953125 C-4.0078125 4.8203125 -4.0078125 4.8203125 -4.3828125 2.1953125 C-2.3828125 0.1953125 -2.3828125 0.1953125 0 0 Z " fill="#ECEFF5" transform="translate(324.3828125,140.8046875)"/>
<path d="M0 0 C1.09570312 0.00902344 2.19140625 0.01804688 3.3203125 0.02734375 C4.16335938 0.03894531 5.00640625 0.05054688 5.875 0.0625 C5.545 1.0525 5.215 2.0425 4.875 3.0625 C3.1734375 3.4646875 3.1734375 3.4646875 1.4375 3.875 C-0.3259375 4.4628125 -0.3259375 4.4628125 -2.125 5.0625 C-3.65646378 8.06844421 -3.65646378 8.06844421 -4.125 11.0625 C-4.455 9.7425 -4.785 8.4225 -5.125 7.0625 C-6.775 7.0625 -8.425 7.0625 -10.125 7.0625 C-9.52316251 5.04204558 -8.85193904 3.04138961 -8.125 1.0625 C-5.36047967 -0.31976016 -3.0788637 -0.03275387 0 0 Z " fill="#063170" transform="translate(324.125,136.9375)"/>
<path d="M0 0 C2.5 0.25 2.5 0.25 4.5 2.25 C3.94444444 6.80555556 3.94444444 6.80555556 2.5 8.25 C-0.5 8.375 -0.5 8.375 -3.5 8.25 C-4.5 7.25 -4.5 7.25 -4.6875 4.8125 C-4.42807033 1.26696114 -3.53871738 0.35387174 0 0 Z " fill="#2779E6" transform="translate(455.5,110.75)"/>
<path d="M0 0 C3.465 1.485 3.465 1.485 7 3 C7 3.33 7 3.66 7 4 C1.06 4 -4.88 4 -11 4 C-11.33 3.34 -11.66 2.68 -12 2 C-8.04 2 -4.08 2 0 2 C0 1.34 0 0.68 0 0 Z " fill="#E0EEFC" transform="translate(84,171)"/>
<path d="M0 0 C1.98 0 3.96 0 6 0 C6 1.98 6 3.96 6 6 C4.02 6 2.04 6 0 6 C0 4.02 0 2.04 0 0 Z " fill="#1C76E9" transform="translate(127,148)"/>
<path d="M0 0 C1.98 0 3.96 0 6 0 C6 1.98 6 3.96 6 6 C4.02 6 2.04 6 0 6 C0 4.02 0 2.04 0 0 Z " fill="#1673E8" transform="translate(118,148)"/>
<path d="M0 0 C1.98 0 3.96 0 6 0 C6 1.98 6 3.96 6 6 C4.02 6 2.04 6 0 6 C0 4.02 0 2.04 0 0 Z " fill="#1C78EA" transform="translate(127,139)"/>
<path d="M0 0 C1.98 0 3.96 0 6 0 C6 1.98 6 3.96 6 6 C4.02 6 2.04 6 0 6 C0 4.02 0 2.04 0 0 Z " fill="#1879ED" transform="translate(118,139)"/>
<path d="M0 0 C4.29 0.66 8.58 1.32 13 2 C12.67 2.66 12.34 3.32 12 4 C7.38 4 2.76 4 -2 4 C-1.34 2.68 -0.68 1.36 0 0 Z " fill="#E0EEFC" transform="translate(164,171)"/>
<path d="M0 0 C0.33 0.99 0.66 1.98 1 3 C2.65 3 4.3 3 6 3 C6.33 4.32 6.66 5.64 7 7 C4.03 6.505 4.03 6.505 1 6 C0.67 4.02 0.34 2.04 0 0 Z " fill="#194986" transform="translate(138,93)"/>
</svg>
